<svg width="14" height="18" viewBox="0 0 14 18" fill="none" xmlns="http://www.w3.org/2000/svg">
<path fill-rule="evenodd" clip-rule="evenodd" d="M7.83334 1.50033C7.83334 1.04009 7.46024 0.666992 7 0.666992C6.53977 0.666992 6.16667 1.04009 6.16667 1.50033V2.12533H5.70216C3.84793 2.12533 2.31327 3.567 2.19752 5.41761L2.01335 8.36216C1.94313 9.48482 1.56623 10.5667 0.923675 11.49C0.343107 12.3242 0.859957 13.4763 1.86907 13.5974L4.70834 13.9381V14.8337C4.70834 16.0993 5.73435 17.1253 7 17.1253C8.26566 17.1253 9.29167 16.0993 9.29167 14.8337V13.9381L12.1309 13.5974C13.14 13.4763 13.6569 12.3242 13.0763 11.49C12.4338 10.5667 12.0569 9.48482 11.9866 8.36216L11.8025 5.41761C11.6867 3.567 10.1521 2.12533 8.29784 2.12533H7.83334V1.50033ZM5.70216 3.37533C4.50799 3.37533 3.51962 4.3038 3.44508 5.49564L3.26091 8.44019C3.17642 9.79113 2.72287 11.093 1.94966 12.204C1.9077 12.2643 1.94506 12.3476 2.018 12.3563L5.13271 12.7301C6.37312 12.879 7.62688 12.879 8.86729 12.7301L11.982 12.3563C12.0549 12.3476 12.0923 12.2643 12.0503 12.204C11.2771 11.093 10.8236 9.79113 10.7391 8.44019L10.5549 5.49564C10.4804 4.3038 9.49201 3.37533 8.29784 3.37533H5.70216ZM7 15.8753C6.42471 15.8753 5.95834 15.409 5.95834 14.8337V14.2087H8.04167V14.8337C8.04167 15.409 7.5753 15.8753 7 15.8753Z" fill="#717085"/>
</svg>
