<svg width="16" height="18" viewBox="0 0 16 18" fill="none" xmlns="http://www.w3.org/2000/svg">
<path fill-rule="evenodd" clip-rule="evenodd" d="M7.51259 0.996063C7.83019 0.898448 8.16979 0.898448 8.48739 0.996063L10.9755 1.76079C12.2735 2.15974 13.5063 2.74629 14.6346 3.50184C15.5123 4.0895 15.0963 5.45845 14.0401 5.45845H1.95992C0.903709 5.45845 0.48771 4.0895 1.36534 3.50184C2.4937 2.74629 3.72644 2.15974 5.02447 1.76079L7.51259 0.996063ZM8.12016 2.1909C8.04185 2.16683 7.95813 2.16683 7.87982 2.1909L5.39171 2.95563C4.40771 3.25806 3.46492 3.67893 2.5839 4.20845H13.4161C12.5351 3.67893 11.5923 3.25806 10.6083 2.95563L8.12016 2.1909Z" fill="#B8B8C2"/>
<path d="M1.54166 16.5001C1.54166 16.1549 1.82148 15.8751 2.16666 15.8751H13.8333C14.1785 15.8751 14.4583 16.1549 14.4583 16.5001C14.4583 16.8453 14.1785 17.1251 13.8333 17.1251H2.16666C1.82148 17.1251 1.54166 16.8453 1.54166 16.5001Z" fill="#B8B8C2"/>
<path d="M3.20833 13.1668C3.20833 13.512 3.48815 13.7918 3.83333 13.7918C4.17851 13.7918 4.45833 13.512 4.45833 13.1668L4.45833 8.16678C4.45833 7.82161 4.17851 7.54178 3.83333 7.54178C3.48815 7.54178 3.20833 7.82161 3.20833 8.16678L3.20833 13.1668Z" fill="#B8B8C2"/>
<path d="M7.99999 13.7918C7.65482 13.7918 7.37499 13.512 7.37499 13.1668L7.37499 8.16678C7.37499 7.82161 7.65482 7.54178 7.99999 7.54178C8.34517 7.54178 8.62499 7.82161 8.62499 8.16678V13.1668C8.62499 13.512 8.34517 13.7918 7.99999 13.7918Z" fill="#B8B8C2"/>
<path d="M11.5417 13.1668C11.5417 13.512 11.8215 13.7918 12.1667 13.7918C12.5118 13.7918 12.7917 13.512 12.7917 13.1668V8.16678C12.7917 7.82161 12.5118 7.54178 12.1667 7.54178C11.8215 7.54178 11.5417 7.82161 11.5417 8.16678V13.1668Z" fill="#B8B8C2"/>
</svg>
