<svg width="15" height="14" viewBox="0 0 15 14" fill="none" xmlns="http://www.w3.org/2000/svg">
<path d="M7.99992 12.2082C7.65474 12.2082 7.37492 12.488 7.37492 12.8332C7.37492 13.1783 7.65474 13.4582 7.99992 13.4582H12.9999C13.8053 13.4582 14.4583 12.8053 14.4583 11.9998V1.99984C14.4583 1.19442 13.8053 0.541504 12.9999 0.541504H7.99992C7.65474 0.541504 7.37492 0.821327 7.37492 1.1665C7.37492 1.51168 7.65474 1.7915 7.99992 1.7915L12.9999 1.7915C13.115 1.7915 13.2083 1.88478 13.2083 1.99984L13.2083 11.9998C13.2083 12.1149 13.115 12.2082 12.9999 12.2082H7.99992Z" fill="#131133"/>
<path fill-rule="evenodd" clip-rule="evenodd" d="M10.0858 8.97085C10.6611 8.97085 11.1275 8.50448 11.1275 7.92919V6.06209C11.1275 5.48679 10.6611 5.02042 10.0858 5.02042L6.24199 5.02042C6.23655 4.95923 6.23086 4.89806 6.22492 4.83691L6.17989 4.37367C6.1112 3.66691 5.3607 3.24365 4.72035 3.55054C3.35849 4.2032 2.12563 5.09632 1.08105 6.18695L0.998382 6.27326C0.611542 6.67716 0.611542 7.31411 0.998381 7.718L1.08105 7.80431C2.12563 8.89494 3.35849 9.78807 4.72035 10.4407C5.3607 10.7476 6.1112 10.3244 6.17989 9.61759L6.22492 9.15436C6.23086 9.09321 6.23655 9.03204 6.24199 8.97085H10.0858ZM5.66251 7.72085C5.44054 7.72085 5.2443 7.83693 5.13332 8.01315C5.07928 8.09897 5.04545 8.19906 5.03872 8.30695C5.0236 8.54934 5.00429 8.79154 4.98078 9.03344L4.96771 9.16789C4.10434 8.72295 3.30256 8.16886 2.5819 7.51976C2.39494 7.35137 2.21343 7.17657 2.03773 6.99563C2.89068 6.11725 3.88035 5.38375 4.96771 4.82337L4.98078 4.95783C5.00429 5.19973 5.0236 5.44193 5.03872 5.68433C5.05927 6.01376 5.33244 6.27042 5.66251 6.27042H9.87748V7.72085H5.66251Z" fill="#131133"/>
</svg>
