<svg width="20" height="13" viewBox="0 0 20 13" fill="none" xmlns="http://www.w3.org/2000/svg">
<path fill-rule="evenodd" clip-rule="evenodd" d="M10.7766 2.17383C9.48465 2.17383 8.36714 2.92577 7.84009 4.01866C7.69839 4.31251 7.35451 4.44794 7.05049 4.32964C6.64154 4.17051 6.19616 4.0829 5.72883 4.0829C3.7151 4.0829 2.08266 5.71534 2.08266 7.72906C2.08266 9.74279 3.7151 11.3752 5.72883 11.3752H15.436C16.8064 11.3752 17.9173 10.2643 17.9173 8.89393C17.9173 7.52354 16.8064 6.41262 15.436 6.41262C15.213 6.41262 14.9979 6.44188 14.7937 6.49642C14.5935 6.54988 14.3798 6.50067 14.2232 6.36503C14.0666 6.22938 13.9874 6.02494 14.0117 5.81918C14.0267 5.69236 14.0345 5.56307 14.0345 5.43171C14.0345 3.63243 12.5759 2.17383 10.7766 2.17383ZM6.98334 2.99525C7.78479 1.75001 9.18372 0.923828 10.7766 0.923828C13.177 0.923828 15.1392 2.80003 15.2768 5.16597C15.3296 5.16375 15.3827 5.16262 15.436 5.16262C17.4968 5.16262 19.1673 6.83319 19.1673 8.89393C19.1673 10.9547 17.4968 12.6252 15.436 12.6252H5.72883C3.02475 12.6252 0.832657 10.4331 0.832657 7.72906C0.832657 5.02498 3.02475 2.8329 5.72883 2.8329C6.16188 2.8329 6.58248 2.88926 6.98334 2.99525Z" fill="#717085"/>
</svg>
