<svg width="14" height="17" viewBox="0 0 14 17" fill="none" xmlns="http://www.w3.org/2000/svg">
<path fill-rule="evenodd" clip-rule="evenodd" d="M8.29818 2.61194C7.57271 1.91581 6.42728 1.91581 5.70181 2.61194L1.84644 6.31139C1.75198 6.40203 1.68844 6.5201 1.66483 6.64887C1.20306 9.16708 1.16897 11.7451 1.56401 14.2746L1.65777 14.8751H4.13815V9.69896C4.13815 9.35378 4.41798 9.07396 4.76315 9.07396H9.23684C9.58202 9.07396 9.86184 9.35378 9.86184 9.69896V14.8751H12.3422L12.436 14.2746C12.831 11.7451 12.7969 9.16708 12.3352 6.64887C12.3115 6.5201 12.248 6.40203 12.1535 6.31139L8.29818 2.61194ZM4.83635 1.71001C6.04548 0.549788 7.95452 0.549788 9.16364 1.71001L13.019 5.40945C13.3028 5.68178 13.4937 6.03653 13.5647 6.42341C14.0518 9.07976 14.0877 11.7992 13.671 14.4675L13.5204 15.4321C13.4581 15.831 13.1145 16.1251 12.7108 16.1251H9.23684C8.89166 16.1251 8.61184 15.8452 8.61184 15.5001V10.324H5.38815V15.5001C5.38815 15.8452 5.10833 16.1251 4.76315 16.1251H1.28921C0.885477 16.1251 0.541906 15.831 0.47961 15.4321L0.328975 14.4675C-0.0877318 11.7992 -0.0517757 9.07976 0.435333 6.42341C0.506277 6.03653 0.69718 5.68178 0.980988 5.40945L4.83635 1.71001Z" fill="#717085"/>
</svg>
