<svg width="16" height="14" viewBox="0 0 16 14" fill="none" xmlns="http://www.w3.org/2000/svg">
<path fill-rule="evenodd" clip-rule="evenodd" d="M0.336412 3.96098C0.102959 6.13006 0.113365 8.63171 0.438218 10.792C0.617966 11.9873 1.59353 12.9037 2.79775 13.0084L4.05628 13.1178C6.68048 13.3459 9.31953 13.3459 11.9437 13.1178L13.2023 13.0084C14.4065 12.9037 15.382 11.9873 15.5618 10.792C15.8866 8.6317 15.8971 6.1302 15.6636 3.96111C15.6334 3.70964 15.5995 3.45851 15.5618 3.2078C15.382 2.01248 14.4065 1.09611 13.2023 0.991427L11.9437 0.882025C9.31953 0.653908 6.68048 0.653908 4.05628 0.882025L2.79775 0.991427C1.59352 1.09611 0.617966 2.01248 0.438218 3.2078C0.400524 3.45847 0.366589 3.70955 0.336412 3.96098ZM4.16453 2.12733C6.7167 1.90547 9.28331 1.90547 11.8355 2.12733L13.094 2.23673C13.7226 2.29137 14.2319 2.76972 14.3257 3.39368C14.3354 3.45848 14.3449 3.52331 14.3541 3.58817L9.71996 6.1627C8.6503 6.75696 7.34965 6.75696 6.27999 6.1627L1.64588 3.5882C1.65509 3.52333 1.66457 3.45849 1.67432 3.39368C1.76815 2.76972 2.27739 2.29137 2.906 2.23673L4.16453 2.12733ZM14.5071 4.93314C14.6687 6.82293 14.6083 8.72697 14.3257 10.6061C14.2319 11.2301 13.7226 11.7084 13.094 11.7631L11.8355 11.8725C9.28331 12.0943 6.7167 12.0943 4.16453 11.8725L2.906 11.7631C2.27739 11.7084 1.76815 11.2301 1.67432 10.6061C1.39175 8.72698 1.33128 6.82295 1.49292 4.93317L5.67294 7.2554C7.12013 8.0594 8.87982 8.0594 10.327 7.2554L14.5071 4.93314Z" fill="#717085"/>
</svg>
