<svg width="16" height="13" viewBox="0 0 16 13" fill="none" xmlns="http://www.w3.org/2000/svg">
<path fill-rule="evenodd" clip-rule="evenodd" d="M14.3346 10.1464C14.6863 8.2218 14.7084 6.2514 14.4 4.31935L14.3466 3.98482C14.2719 3.51642 13.8678 3.17177 13.3935 3.17177H6.13279C5.64524 3.17177 5.25 2.77653 5.25 2.28897C5.25 1.92227 4.95273 1.625 4.58602 1.625H2.67639C2.17886 1.625 1.75979 1.99676 1.70047 2.49073L1.4734 4.38166C1.24696 6.26734 1.3054 8.17635 1.64676 10.0446C1.72387 10.4666 2.0768 10.783 2.5047 10.8136L3.76637 10.9038C6.58519 11.1055 9.41481 11.1055 12.2336 10.9038L13.5985 10.8062C13.9657 10.7799 14.2685 10.5085 14.3346 10.1464ZM15.6344 4.12232C15.9651 6.19419 15.9414 8.30719 15.5643 10.3711C15.3956 11.2942 14.6236 11.9861 13.6877 12.053L12.3228 12.1507C9.44462 12.3566 6.55538 12.3566 3.67717 12.1507L2.4155 12.0604C1.41881 11.9891 0.596718 11.2523 0.417119 10.2693C0.0532321 8.27773 -0.009065 6.24274 0.232318 4.23263L0.459389 2.3417C0.594145 1.21952 1.54615 0.375 2.67639 0.375L4.58602 0.375C5.51749 0.375 6.29354 1.04038 6.46481 1.92177L13.3935 1.92177C14.4821 1.92177 15.4094 2.71278 15.581 3.7878L15.6344 4.12232Z" fill="#717085"/>
</svg>
