<svg width="32" height="32" viewBox="0 0 32 32" fill="none" xmlns="http://www.w3.org/2000/svg">
  <rect width="32" height="32" rx="4" fill="#F4A100" fill-opacity="0.1"/>
  <path fill-rule="evenodd" clip-rule="evenodd" d="M16 5.33333L27.3333 26H4.66667L16 5.33333ZM16 14.6667C15.4477 14.6667 15 15.1144 15 15.6667V19.6667C15 20.219 15.4477 20.6667 16 20.6667C16.5523 20.6667 17 20.219 17 19.6667V15.6667C17 15.1144 16.5523 14.6667 16 14.6667ZM16 22.6667C15.4477 22.6667 15 23.1144 15 23.6667C15 24.219 15.4477 24.6667 16 24.6667C16.5523 24.6667 17 24.219 17 23.6667C17 23.1144 16.5523 22.6667 16 22.6667Z" fill="#F4A100"/>
</svg>
