<svg width="24" height="24" viewBox="0 0 24 24" fill="none" xmlns="http://www.w3.org/2000/svg">
  <path d="M7.19272 4.629C7.21505 4.457 7.46489 4.457 7.48662 4.629C7.65741 5.96818 8.71173 7.02184 10.0503 7.19272C10.2229 7.21505 10.2229 7.46489 10.0503 7.48661C8.71176 7.65741 7.65749 8.71173 7.48662 10.0503C7.46489 10.2229 7.21504 10.2229 7.19272 10.0503C7.02192 8.71176 5.96821 7.65749 4.629 7.48661C4.457 7.46489 4.457 7.21504 4.629 7.19272C5.96818 7.02192 7.02184 5.96821 7.19272 4.629Z" fill="#1e1650"/>
  <path d="M13.3511 7.96552C13.3909 7.65472 13.8412 7.65472 13.8804 7.96552C14.2395 10.7778 16.4543 12.9927 19.2666 13.3511C19.5774 13.3909 19.5774 13.8412 19.2666 13.8804C16.4543 14.2395 14.2394 16.4543 13.8804 19.2666C13.8412 19.5774 13.3909 19.5774 13.3511 19.2666C12.9926 16.4543 10.7778 14.2394 7.96552 13.8804C7.65472 13.8412 7.65472 13.3909 7.96552 13.3511C10.7778 12.9926 12.9927 10.7778 13.3511 7.96552Z" fill="#1e1650"/>
</svg>
