<svg width="24" height="24" viewBox="0 0 24 24" fill="none" xmlns="http://www.w3.org/2000/svg">
  <path d="M14 2.25C14.1381 2.25 14.25 2.36193 14.25 2.5V8.14706C14.25 8.56127 14.5858 8.89706 15 8.89706H19.5C19.6381 8.89706 19.75 9.00899 19.75 9.14706V19C19.75 20.5188 18.5188 21.75 17 21.75H7C5.48122 21.75 4.25 20.5188 4.25 19V5C4.25 3.48122 5.48122 2.25 7 2.25H14Z" fill="#FF5E48"/>
  <path d="M6.5 18.3991V14H8.35741C8.40018 14 8.45721 14.002 8.52849 14.0061C8.60181 14.0081 8.66698 14.0143 8.72401 14.0244C8.98674 14.0652 9.2016 14.1517 9.36861 14.2841C9.53765 14.4165 9.66188 14.5835 9.74131 14.7851C9.82074 14.9847 9.86045 15.2077 9.86045 15.4542C9.86045 15.7006 9.81972 15.9246 9.73826 16.1263C9.65883 16.3258 9.53459 16.4918 9.36555 16.6242C9.19855 16.7566 8.9847 16.8431 8.72401 16.8839C8.66698 16.892 8.60181 16.8981 8.52849 16.9022C8.45517 16.9063 8.39815 16.9083 8.35741 16.9083H7.33095V18.3991H6.5ZM7.33095 16.1324H8.32076C8.36352 16.1324 8.41037 16.1303 8.46128 16.1263C8.5122 16.1222 8.55904 16.114 8.60181 16.1018C8.71383 16.0713 8.80038 16.0203 8.86148 15.9491C8.92258 15.8757 8.96433 15.7953 8.98674 15.7077C9.01118 15.6181 9.0234 15.5336 9.0234 15.4542C9.0234 15.3747 9.01118 15.2912 8.98674 15.2037C8.96433 15.114 8.92258 15.0336 8.86148 14.9623C8.80038 14.889 8.71383 14.8371 8.60181 14.8065C8.55904 14.7943 8.5122 14.7861 8.46128 14.7821C8.41037 14.778 8.36352 14.776 8.32076 14.776H7.33095V16.1324Z" fill="white"/>
  <path d="M10.4738 18.3991V14H11.8974C11.9321 14 12.0033 14.001 12.1113 14.0031C12.2192 14.0051 12.3231 14.0122 12.4229 14.0244C12.7773 14.0672 13.0777 14.1904 13.3241 14.3941C13.5705 14.5978 13.7579 14.8564 13.8862 15.17C14.0145 15.4837 14.0787 15.8269 14.0787 16.1996C14.0787 16.5723 14.0145 16.9154 13.8862 17.2291C13.7579 17.5427 13.5705 17.8014 13.3241 18.0051C13.0777 18.2087 12.7773 18.3319 12.4229 18.3747C12.3231 18.3869 12.2192 18.394 12.1113 18.3961C12.0033 18.3981 11.9321 18.3991 11.8974 18.3991H10.4738ZM11.317 17.6171H11.8974C11.9524 17.6171 12.0268 17.6161 12.1205 17.614C12.2141 17.6099 12.2987 17.6008 12.374 17.5865C12.5655 17.5478 12.7213 17.4582 12.8414 17.3177C12.9636 17.1772 13.0532 17.0081 13.1103 16.8106C13.1693 16.613 13.1989 16.4093 13.1989 16.1996C13.1989 15.9796 13.1683 15.7709 13.1072 15.5733C13.0481 15.3757 12.9575 15.2087 12.8353 15.0723C12.7131 14.9358 12.5594 14.8493 12.374 14.8126C12.2987 14.7963 12.2141 14.7872 12.1205 14.7851C12.0268 14.7831 11.9524 14.7821 11.8974 14.7821H11.317V17.6171Z" fill="white"/>
  <path d="M14.8116 18.3991V14H17.5V14.8309H15.6426V15.7841H17.1334V16.615H15.6426V18.3991H14.8116Z" fill="white"/>
  <path d="M16.0862 2.63896C15.9426 2.52307 15.75 2.64021 15.75 2.82471V7.14763C15.75 7.2857 15.8619 7.39763 16 7.39763H19.2983C19.416 7.39763 19.4903 7.2736 19.4217 7.17802L16.4085 2.98012C16.3158 2.85093 16.2071 2.73657 16.0862 2.63896Z" fill="#DE1135"/>
</svg>
