<svg width="30" height="32" viewBox="0 0 30 32" fill="none" xmlns="http://www.w3.org/2000/svg">
<path d="M19.9431 7.87304C20.5033 8.22749 21.0634 8.58194 21.6236 8.97184C22.4826 9.60986 23.1922 10.4251 23.715 11.3822C23.7728 11.4762 23.8379 11.5685 23.9095 11.6583C24.3111 12.4339 24.5976 13.2778 24.7239 14.147C24.836 14.8205 24.8733 15.423 24.8733 16.0965C24.8733 16.77 24.836 17.408 24.7239 18.046C24.5745 19.074 24.2011 20.031 23.6782 20.9526C23.6782 20.9703 23.6689 20.9792 23.6596 20.9881C23.6502 20.9969 23.6409 21.0058 23.6409 21.0235C23.0807 21.8388 22.4085 22.5477 21.6242 23.1503C21.1013 23.5756 20.5411 23.9301 19.9436 24.2491C19.3461 24.5681 18.7485 24.8517 18.1136 25.0998C17.1426 25.4897 16.1343 25.6669 15.1259 25.7024H15.0512C13.9682 25.6669 12.8851 25.4897 11.8768 25.0998C11.2419 24.8517 10.6444 24.5681 10.0468 24.2491C9.44929 23.9301 8.88909 23.5402 8.36624 23.1503C7.50728 22.4768 6.7977 21.697 6.2375 20.8108L6.20016 20.7754C5.752 19.9247 5.41588 19.0031 5.2665 18.046C5.15446 17.3726 5.11711 16.7345 5.11711 16.0965C5.11711 15.423 5.15446 14.785 5.2665 14.147C5.41588 13.1191 5.78935 12.162 6.3122 11.2404C6.57362 10.8151 6.72301 10.2834 6.72301 9.7517C6.76035 7.97941 5.22915 6.52612 3.36184 6.52612C1.49452 6.52612 -0.0366773 7.97941 0.000668993 9.7517C0.000668993 10.2834 0.150054 10.7796 0.411479 11.2404C0.934327 12.1266 1.30779 13.1191 1.45718 14.147C1.56921 14.8205 1.60656 15.423 1.60656 16.0965C1.60656 16.77 1.56921 17.408 1.45718 18.046C1.30779 18.9676 1.00902 19.8538 0.560864 20.669V20.7045C0.54219 20.7399 0.523517 20.7665 0.504843 20.7931C0.48617 20.8197 0.467498 20.8463 0.448825 20.8817C0.150055 21.378 0.000668993 21.9451 0.000668993 22.4768V22.5122C0.000668993 24.2491 1.53187 25.7024 3.36184 25.7024H3.69795C4.63161 25.7378 5.56527 25.9505 6.46158 26.2695C7.09647 26.5176 7.69401 26.8012 8.29155 27.1202C8.88909 27.4392 9.44929 27.8291 9.97214 28.219C10.8311 28.8571 11.5407 29.6369 12.1009 30.523C12.1009 30.5939 12.1382 30.6294 12.1756 30.6648C12.3249 30.842 12.4743 31.0193 12.6611 31.1965L12.7731 31.3028C12.8105 31.3205 12.8478 31.3471 12.8851 31.3737C12.9225 31.4003 12.9598 31.4269 12.9972 31.4446C13.0159 31.4623 13.0439 31.4801 13.0719 31.4978C13.0999 31.5155 13.1279 31.5332 13.1466 31.5509C13.1652 31.5687 13.1839 31.5775 13.2026 31.5864C13.2213 31.5953 13.2399 31.6041 13.2586 31.6218H13.296C13.3333 31.6573 13.3707 31.6927 13.408 31.6927C13.4267 31.6927 13.4453 31.7016 13.464 31.7104C13.4827 31.7193 13.5014 31.7282 13.52 31.7282C13.5574 31.7282 13.6321 31.7636 13.7068 31.7991C13.7441 31.8168 13.7815 31.8256 13.8188 31.8345C13.8561 31.8434 13.8935 31.8522 13.9308 31.87C13.9682 31.87 13.9962 31.8788 14.0242 31.8877C14.0522 31.8965 14.0802 31.9054 14.1176 31.9054C14.1549 31.9054 14.1923 31.9143 14.2296 31.9231C14.2669 31.932 14.3043 31.9408 14.3417 31.9408C15.1259 32.0826 15.9475 31.9763 16.6945 31.5509C17.18 31.2674 17.5908 30.8775 17.8522 30.4521C18.4124 29.566 19.122 28.7862 19.9809 28.1481C20.5038 27.7582 21.064 27.3683 21.6615 27.0493C22.2591 26.7303 22.8566 26.4467 23.4915 26.1986C24.3878 25.8796 25.3588 25.6669 26.3298 25.6315H26.5912C27.1141 25.6315 27.5996 25.5251 28.0478 25.3125L28.2718 25.2061L28.6079 24.9934C29.9898 24.0364 30.4006 22.2287 29.579 20.8817C29.5416 20.7754 29.4669 20.669 29.3922 20.5982C28.9814 19.8183 28.6826 18.9322 28.5333 18.046C28.4212 17.3726 28.3839 16.7345 28.3839 16.0965C28.3839 15.423 28.4212 14.785 28.5333 14.147C28.6826 13.1191 29.0561 12.162 29.579 11.2404C29.8404 10.8151 29.9898 10.2834 29.9898 9.7517C30.0159 8.50979 29.2719 7.42453 28.1817 6.88619C27.7085 6.62248 27.1696 6.49062 26.6654 6.49062C25.5823 6.45518 24.4993 6.27795 23.4909 5.88804C22.8561 5.63992 22.2585 5.35635 21.661 5.03734C21.0634 4.71833 20.5032 4.32842 19.9804 3.93852C19.1214 3.26504 18.4118 2.48523 17.8516 1.59909C17.5902 1.17374 17.1794 0.783831 16.7313 0.429371C15.1254 -0.456776 13.034 0.0749122 12.1003 1.59909C12.006 1.75661 11.9273 1.91848 11.8637 2.08308C11.7038 2.45932 11.6159 2.87053 11.6159 3.30053C11.6159 3.86766 11.7653 4.36391 12.0267 4.8247C12.5496 5.71085 12.9231 6.70334 13.0725 7.73127C13.1846 8.40474 13.2219 9.04277 13.2219 9.68079C13.2219 10.3188 13.1846 10.9568 13.0725 11.5949C12.9231 12.6228 12.5496 13.5798 12.0267 14.5014C11.7653 14.9622 11.6159 15.4939 11.6159 16.0256C11.5786 17.7979 13.1099 19.2512 14.9774 19.2512C16.8449 19.2512 18.3762 17.7979 18.3389 16.0256C18.3389 15.4585 18.1895 14.9622 17.928 14.5014C17.4051 13.6153 17.0316 12.6228 16.8822 11.5949C16.7702 10.9568 16.7328 10.3188 16.7328 9.68079C16.7328 9.00732 16.7702 8.3693 16.8822 7.73127C16.9329 7.38219 17.0095 7.04128 17.109 6.70716C17.4499 6.79138 17.7854 6.89562 18.1131 7.02231C18.748 7.27043 19.3455 7.55403 19.9431 7.87304Z" fill="#3E33CF"/>
</svg>
