<svg width="18" height="20" viewBox="0 0 18 20" fill="none" xmlns="http://www.w3.org/2000/svg">
<path fill-rule="evenodd" clip-rule="evenodd" d="M8.19868 0.587035C8.69702 0.310181 9.30297 0.310181 9.80131 0.587035L17.0013 4.58704C17.5251 4.87804 17.85 5.43017 17.85 6.0294V13.9703C17.85 14.5695 17.5251 15.1216 17.0013 15.4126L9.80131 19.4126C9.30297 19.6895 8.69702 19.6895 8.19868 19.4126L0.998682 15.4126C0.474864 15.1216 0.149994 14.5695 0.149994 13.9703V6.0294C0.149994 5.43017 0.474865 4.87805 0.998683 4.58704L8.19868 0.587035ZM9.07284 1.89827C9.02754 1.8731 8.97245 1.8731 8.92715 1.89827L1.72715 5.89827C1.67953 5.92473 1.64999 5.97492 1.64999 6.0294V13.9703C1.64999 14.0247 1.67953 14.0749 1.72715 14.1014L8.92715 18.1014C8.97245 18.1266 9.02754 18.1266 9.07284 18.1014L16.2728 14.1014C16.3205 14.0749 16.35 14.0247 16.35 13.9703V6.0294C16.35 5.97492 16.3205 5.92473 16.2728 5.89827L9.07284 1.89827Z" fill="#B8B8C2"/>
<path fill-rule="evenodd" clip-rule="evenodd" d="M4.24999 9.99983C4.24999 7.37648 6.37664 5.24983 8.99999 5.24983C11.6233 5.24983 13.75 7.37648 13.75 9.99983C13.75 12.6232 11.6233 14.7498 8.99999 14.7498C6.37664 14.7498 4.24999 12.6232 4.24999 9.99983ZM8.99999 6.74983C7.20507 6.74983 5.74999 8.20491 5.74999 9.99983C5.74999 11.7948 7.20507 13.2498 8.99999 13.2498C10.7949 13.2498 12.25 11.7948 12.25 9.99983C12.25 8.20491 10.7949 6.74983 8.99999 6.74983Z" fill="#B8B8C2"/>
</svg>
