<svg width="17" height="16" viewBox="0 0 17 16" fill="none" xmlns="http://www.w3.org/2000/svg">
<path fill-rule="evenodd" clip-rule="evenodd" d="M13.8333 15.9165H2.99999C1.38916 15.9165 0.0833282 14.6107 0.0833282 12.9998V2.11917C0.0833282 1.22954 0.963194 0.665546 1.73741 0.93434C1.84801 0.972739 1.95646 1.02813 2.05988 1.102L2.20575 1.2062C2.9291 1.72288 3.90742 1.72059 4.63281 1.20246C5.64693 0.478087 7.01973 0.478087 8.03384 1.20246C8.75923 1.72059 9.73755 1.72288 10.4609 1.2062L10.6068 1.102C11.4341 0.51105 12.5833 1.10246 12.5833 2.11917V8.41651H15.5C15.8452 8.41651 16.125 8.69633 16.125 9.04151V13.6248C16.125 14.8905 15.099 15.9165 13.8333 15.9165ZM12.7917 9.66651V13.6248C12.7917 14.2001 13.258 14.6665 13.8333 14.6665C14.4086 14.6665 14.875 14.2001 14.875 13.6248V9.66651H12.7917ZM9.24999 6.12484C9.24999 5.77966 8.97017 5.49984 8.62499 5.49984H3.62499C3.27982 5.49984 2.99999 5.77966 2.99999 6.12484C2.99999 6.47002 3.27982 6.74984 3.62499 6.74984H8.62499C8.97017 6.74984 9.24999 6.47002 9.24999 6.12484ZM8.41666 8.62484C8.41666 8.27966 8.13684 7.99984 7.79166 7.99984H3.62499C3.27982 7.99984 2.99999 8.27966 2.99999 8.62484C2.99999 8.97002 3.27982 9.24984 3.62499 9.24984H7.79166C8.13684 9.24984 8.41666 8.97002 8.41666 8.62484ZM8.62499 10.4998C8.97017 10.4998 9.24999 10.7797 9.24999 11.1248C9.24999 11.47 8.97017 11.7498 8.62499 11.7498H3.62499C3.27982 11.7498 2.99999 11.47 2.99999 11.1248C2.99999 10.7797 3.27982 10.4998 3.62499 10.4998H8.62499Z" fill="#717085"/>
</svg>
